# OBJ File exported by EasyPolyMap
v -482.2977 -10 168.85016
v -472.93698 19.988726 160.11227
v -482.8696 -10 155.64711
v -482.2977 -10 168.85016
v -471.78613 20.253214 162.13316
v -472.93698 19.988726 160.11227
v -482.2977 -10 168.85016
v -478.75116 -10 174.07204
v -471.78613 20.253214 162.13316
v -482.8696 -10 155.64711
v -472.93698 19.988726 160.11227
v -473.86551 19.513195 155.42986
v -482.8696 -10 155.64711
v -473.25162 19.381195 153.86005
v -476.68262 -10 145.33908
v -482.8696 -10 155.64711
v -473.86551 19.513195 155.42986
v -473.25162 19.381195 153.86005
v -478.75116 -10 174.07204
v -469.36703 20.630739 164.63652
v -471.78613 20.253214 162.13316
v -478.75116 -10 174.07204
v -468.27951 20.955219 166.23026
v -469.36703 20.630739 164.63652
v -478.75116 -10 174.07204
v -469.08054 -10 175.65714
v -468.27951 20.955219 166.23026
v -471.81271 19.302996 150.32527
v -467.71591 19.27249 147.77805
v -466.28546 19.205248 145.0553
v -473.86551 19.513195 155.42986
v -472.93698 19.988726 160.11227
v -472.11273 19.574884 155.8539
v -472.93698 19.988726 160.11227
v -470.42786 19.948652 158.65515
v -472.11273 19.574884 155.8539
v -473.86551 19.513195 155.42986
v -472.11273 19.574884 155.8539
v -473.25162 19.381195 153.86005
v -472.93698 19.988726 160.11227
v -471.78613 20.253214 162.13316
v -470.42786 19.948652 158.65515
v -473.25162 19.381195 153.86005
v -470.31851 19.397808 153.10153
v -471.81271 19.302996 150.32527
v -470.90869 -10 180.22197
v -468.87839 -10 189.45639
v -460.24588 22.713905 174.89095
v -469.08054 -10 175.65714
v -462.7897 21.447111 167.74736
v -468.27951 20.955219 166.23026
v -468.87839 -10 189.45639
v -462.50903 -10 188.26511
v -460.24588 22.713905 174.89095
v -473.25162 19.381195 153.86005
v -472.11273 19.574884 155.8539
v -470.31851 19.397808 153.10153
v -470.90869 -10 180.22197
v -460.24588 22.713905 174.89095
v -469.08054 -10 175.65714
v -471.78613 20.253214 162.13316
v -468.09717 20.342278 161.78357
v -470.42786 19.948652 158.65515
v -471.78613 20.253214 162.13316
v -469.36703 20.630739 164.63652
v -468.09717 20.342278 161.78357
v -469.08054 -10 175.65714
v -460.24588 22.713905 174.89095
v -461.57486 22.47961 173.58185
v -469.08054 -10 175.65714
v -461.57486 22.47961 173.58185
v -462.7897 21.447111 167.74736
v -472.11273 19.574884 155.8539
v -470.42786 19.948652 158.65515
v -470.31851 19.397808 153.10153
v -471.81271 19.302996 150.32527
v -469.28726 19.392202 151.84396
v -467.71591 19.27249 147.77805
v -471.81271 19.302996 150.32527
v -470.31851 19.397808 153.10153
v -469.28726 19.392202 151.84396
v -470.42786 19.948652 158.65515
v -463.78854 20.099466 158.36002
v -470.31851 19.397808 153.10153
v -470.31851 19.397808 153.10153
v -463.78854 20.099466 158.36002
v -469.28726 19.392202 151.84396
v -468.27951 20.955219 166.23026
v -462.7897 21.447111 167.74736
v -463.21857 21.25358 166.6433
v -470.42786 19.948652 158.65515
v -468.09717 20.342278 161.78357
v -463.78854 20.099466 158.36002
v -469.36703 20.630739 164.63652
v -466.45169 20.623322 163.28046
v -468.09717 20.342278 161.78357
v -469.36703 20.630739 164.63652
v -468.27951 20.955219 166.23026
v -466.45169 20.623322 163.28046
v -468.27951 20.955219 166.23026
v -463.21857 21.25358 166.6433
v -466.45169 20.623322 163.28046
v -469.28726 19.392202 151.84396
v -463.78854 20.099466 158.36002
v -461.62772 19.668726 151.96016
v -468.09717 20.342278 161.78357
v -466.45169 20.623322 163.28046
v -463.78854 20.099466 158.36002
v -462.50903 -10 188.26511
v -454.47604 22.966452 176.67038
v -460.24588 22.713905 174.89095
v -469.28726 19.392202 151.84396
v -461.62772 19.668726 151.96016
v -467.71591 19.27249 147.77805
v -466.45169 20.623322 163.28046
v -460.42157 20.594406 160.91562
v -463.78854 20.099466 158.36002
v -466.45169 20.623322 163.28046
v -463.21857 21.25358 166.6433
v -460.42157 20.594406 160.91562
v -462.50903 -10 188.26511
v -452.63089 23.286358 179.07678
v -454.47604 22.966452 176.67038
v -462.7897 21.447111 167.74736
v -461.57486 22.47961 173.58185
v -459.41724 22.109638 171.1897
v -462.50903 -10 188.26511
v -451.67615 23.974167 186.62619
v -452.63089 23.286358 179.07678
v -463.21857 21.25358 166.6433
v -458.19055 20.857187 162.50357
v -460.42157 20.594406 160.91562
v -462.50903 -10 188.26511
v -462.42792 -10 190.62157
v -451.67615 23.974167 186.62619
v -462.42792 -10 190.62157
v -460.20877 -10 193.66202
v -451.67615 23.974167 186.62619
v -463.21857 21.25358 166.6433
v -456.06912 21.299259 165.68166
v -458.19055 20.857187 162.50357
v -463.21857 21.25358 166.6433
v -462.7897 21.447111 167.74736
v -456.06912 21.299259 165.68166
v -462.7897 21.447111 167.74736
v -459.41724 22.109638 171.1897
v -456.06912 21.299259 165.68166
v -461.27899 -10 201.56587
v -461.00766 -10 212.75949
v -439.13736 23.994421 199.84236
v -461.57486 22.47961 173.58185
v -460.24588 22.713905 174.89095
v -459.41724 22.109638 171.1897
v -460.24588 22.713905 174.89095
v -457.17865 22.46225 173.2746
v -459.41724 22.109638 171.1897
v -460.24588 22.713905 174.89095
v -454.47604 22.966452 176.67038
v -457.17865 22.46225 173.2746
v -463.78854 20.099466 158.36002
v -460.42157 20.594406 160.91562
v -461.62772 19.668726 151.96016
v -461.27899 -10 201.56587
v -443.32327 23.946182 192.20779
v -460.20877 -10 193.66202
v -460.20877 -10 193.66202
v -443.32327 23.946182 192.20779
v -451.67615 23.974167 186.62619
v -461.62772 19.668726 151.96016
v -458.50696 19.448664 146.50975
v -460.05682 19.337517 144.78757
v -461.27899 -10 201.56587
v -441.54663 23.945116 194.81729
v -443.32327 23.946182 192.20779
v -461.27899 -10 201.56587
v -439.13736 23.994421 199.84236
v -441.54663 23.945116 194.81729
v -459.41724 22.109638 171.1897
v -452.22589 21.647566 168.44304
v -456.06912 21.299259 165.68166
v -459.41724 22.109638 171.1897
v -457.17865 22.46225 173.2746
v -452.22589 21.647566 168.44304
v -452.63089 23.286358 179.07678
v -451.67615 23.974167 186.62619
v -449.98596 23.463614 181.54944
v -460.42157 20.594406 160.91562
v -448.72766 19.77458 152.39221
v -461.62772 19.668726 151.96016
v -461.00766 -10 212.75949
v -438.52753 24.556906 209.80559
v -439.13736 23.994421 199.84236
v -461.00766 -10 212.75949
v -460.68018 -10 223.04897
v -438.52753 24.556906 209.80559
v -460.42157 20.594406 160.91562
v -458.19055 20.857187 162.50357
v -448.72766 19.77458 152.39221
v -461.62772 19.668726 151.96016
v -449.72681 19.639425 150.56088
v -456.34354 19.476301 146.61026
v -461.62772 19.668726 151.96016
v -448.72766 19.77458 152.39221
v -449.72681 19.639425 150.56088
v -457.17865 22.46225 173.2746
v -451.44666 22.116957 171.8755
v -452.22589 21.647566 168.44304
v -460.68018 -10 223.04897
v -448.77798 -10 224.44702
v -438.52753 24.556906 209.80559
v -457.17865 22.46225 173.2746
v -454.47604 22.966452 176.67038
v -451.44666 22.116957 171.8755
v -461.62772 19.668726 151.96016
v -456.34354 19.476301 146.61026
v -458.50696 19.448664 146.50975
v -458.19055 20.857187 162.50357
v -445.08411 21.286022 166.9393
v -448.72766 19.77458 152.39221
v -458.19055 20.857187 162.50357
v -456.06912 21.299259 165.68166
v -445.08411 21.286022 166.9393
v -451.67615 23.974167 186.62619
v -443.32327 23.946182 192.20779
v -445.77655 23.752518 187.59781
v -454.47604 22.966452 176.67038
v -452.63089 23.286358 179.07678
v -451.44666 22.116957 171.8755
v -451.67615 23.974167 186.62619
v -448.41486 23.677572 184.87392
v -449.98596 23.463614 181.54944
v -456.06912 21.299259 165.68166
v -452.22589 21.647566 168.44304
v -445.08411 21.286022 166.9393
v -452.63089 23.286358 179.07678
v -449.98596 23.463614 181.54944
v -451.44666 22.116957 171.8755
v -451.67615 23.974167 186.62619
v -445.77655 23.752518 187.59781
v -448.41486 23.677572 184.87392
v -451.44666 22.116957 171.8755
v -449.98596 23.463614 181.54944
v -436.57236 22.919773 185.65549
v -451.44666 22.116957 171.8755
v -445.08411 21.286022 166.9393
v -452.22589 21.647566 168.44304
v -451.44666 22.116957 171.8755
v -436.57236 22.919773 185.65549
v -445.08411 21.286022 166.9393
vn -0.95029444 0.30861977 0.041162681
vn -0.95029444 0.30861977 0.041162681
vn -0.95029444 0.30861977 0.041162681
vn -0.82440484 0.37964651 0.41979194
vn -0.82440484 0.37964651 0.41979194
vn -0.82440484 0.37964651 0.41979194
vn -0.76482642 0.38107172 0.51944661
vn -0.76482642 0.38107172 0.51944661
vn -0.76482642 0.38107172 0.51944661
vn -0.94415957 0.28921276 0.15785621
vn -0.94415957 0.28921276 0.15785621
vn -0.94415957 0.28921276 0.15785621
vn -0.8319357 0.24196416 -0.49933603
vn -0.8319357 0.24196416 -0.49933603
vn -0.8319357 0.24196416 -0.49933603
vn -0.88923013 0.2685664 -0.3703267
vn -0.88923013 0.2685664 -0.3703267
vn -0.88923013 0.2685664 -0.3703267
vn -0.68902642 0.39772037 0.60585564
vn -0.68902642 0.39772037 0.60585564
vn -0.68902642 0.39772037 0.60585564
vn -0.79640472 0.38711423 0.46463114
vn -0.79640472 0.38711423 0.46463114
vn -0.79640472 0.38711423 0.46463114
vn -0.15472665 0.29147714 0.94398135
vn -0.15472665 0.29147714 0.94398135
vn -0.15472665 0.29147714 0.94398135
vn -0.011739125 0.99945509 -0.030850179
vn -0.011739125 0.99945509 -0.030850179
vn -0.011739125 0.99945509 -0.030850179
vn -0.011106174 0.9950403 -0.098850563
vn -0.011106174 0.9950403 -0.098850563
vn -0.011106174 0.9950403 -0.098850563
vn -0.045289982 0.99340779 -0.10530851
vn -0.045289982 0.99340779 -0.10530851
vn -0.045289982 0.99340779 -0.10530851
vn -0.013513666 0.99593723 -0.0890297
vn -0.013513666 0.99593723 -0.0890297
vn -0.013513666 0.99593723 -0.0890297
vn -0.044820968 0.993514 -0.1045038
vn -0.044820968 0.993514 -0.1045038
vn -0.044820968 0.993514 -0.1045038
vn -0.012718791 0.99954659 -0.027290298
vn -0.012718791 0.99954659 -0.027290298
vn -0.012718791 0.99954659 -0.027290298
vn -0.92088014 0.33314669 0.20246713
vn -0.92088014 0.33314669 0.20246713
vn -0.92088014 0.33314669 0.20246713
vn -0.27896336 0.28635737 0.91661274
vn -0.27896336 0.28635737 0.91661274
vn -0.27896336 0.28635737 0.91661274
vn 0.17133087 0.36264557 0.91604257
vn 0.17133087 0.36264557 0.91604257
vn 0.17133087 0.36264557 0.91604257
vn -0.026724571 0.99631339 -0.081520177
vn -0.026724571 0.99631339 -0.081520177
vn -0.026724571 0.99631339 -0.081520177
vn -0.90227777 0.23520426 -0.36135021
vn -0.90227777 0.23520426 -0.36135021
vn -0.90227777 0.23520426 -0.36135021
vn -0.033500236 0.99440718 -0.1001609
vn -0.033500236 0.99440718 -0.1001609
vn -0.033500236 0.99440718 -0.1001609
vn -0.034951393 0.992643 -0.11592317
vn -0.034951393 0.992643 -0.11592317
vn -0.034951393 0.992643 -0.11592317
vn -0.70488316 0.20625459 0.67867428
vn -0.70488316 0.20625459 0.67867428
vn -0.70488316 0.20625459 0.67867428
vn -0.95968843 0.23191875 0.15878263
vn -0.95968843 0.23191875 0.15878263
vn -0.95968843 0.23191875 0.15878263
vn -0.054768819 0.99351692 -0.099621825
vn -0.054768819 0.99351692 -0.099621825
vn -0.054768819 0.99351692 -0.099621825
vn -0.014284936 0.99928719 -0.034942694
vn -0.014284936 0.99928719 -0.034942694
vn -0.014284936 0.99928719 -0.034942694
vn -0.021851059 0.99951082 -0.022374023
vn -0.021851059 0.99951082 -0.022374023
vn -0.021851059 0.99951082 -0.022374023
vn -0.027004346 0.99470174 -0.099192694
vn -0.027004346 0.99470174 -0.099192694
vn -0.027004346 0.99470174 -0.099192694
vn -0.062335622 0.99650764 -0.055559389
vn -0.062335622 0.99650764 -0.055559389
vn -0.062335622 0.99650764 -0.055559389
vn -0.045501601 0.98681825 -0.15530424
vn -0.045501601 0.98681825 -0.15530424
vn -0.045501601 0.98681825 -0.15530424
vn -0.027239926 0.99412137 -0.10478891
vn -0.027239926 0.99412137 -0.10478891
vn -0.027239926 0.99412137 -0.10478891
vn -0.055575296 0.99061191 -0.12489763
vn -0.055575296 0.99061191 -0.12489763
vn -0.055575296 0.99061191 -0.12489763
vn -0.068955407 0.98571861 -0.15363619
vn -0.068955407 0.98571861 -0.15363619
vn -0.068955407 0.98571861 -0.15363619
vn -0.046853837 0.98899829 -0.14031015
vn -0.046853837 0.98899829 -0.14031015
vn -0.046853837 0.98899829 -0.14031015
vn -0.034772355 0.99628413 -0.078795023
vn -0.034772355 0.99628413 -0.078795023
vn -0.034772355 0.99628413 -0.078795023
vn -0.049056552 0.99004096 -0.13195626
vn -0.049056552 0.99004096 -0.13195626
vn -0.049056552 0.99004096 -0.13195626
vn -0.28779578 0.37940082 0.87933421
vn -0.28779578 0.37940082 0.87933421
vn -0.28779578 0.37940082 0.87933421
vn -0.035392221 0.99844468 -0.043075196
vn -0.035392221 0.99844468 -0.043075196
vn -0.035392221 0.99844468 -0.043075196
vn -0.046462774 0.99034774 -0.13058506
vn -0.046462774 0.99034774 -0.13058506
vn -0.046462774 0.99034774 -0.13058506
vn -0.04935471 0.98920941 -0.13794529
vn -0.04935471 0.98920941 -0.13794529
vn -0.04935471 0.98920941 -0.13794529
vn -0.75968927 0.37256956 0.53297663
vn -0.75968927 0.37256956 0.53297663
vn -0.75968927 0.37256956 0.53297663
vn -0.019793218 0.98520637 -0.17022561
vn -0.019793218 0.98520637 -0.17022561
vn -0.019793218 0.98520637 -0.17022561
vn -0.9474175 0.30652305 0.091889396
vn -0.9474175 0.30652305 0.091889396
vn -0.9474175 0.30652305 0.091889396
vn -0.0263946 0.99155122 -0.1270027
vn -0.0263946 0.99155122 -0.1270027
vn -0.0263946 0.99155122 -0.1270027
vn -0.95176995 0.30505854 0.032762486
vn -0.95176995 0.30505854 0.032762486
vn -0.95176995 0.30505854 0.032762486
vn -0.76819426 0.30904648 0.56068516
vn -0.76819426 0.30904648 0.56068516
vn -0.76819426 0.30904648 0.56068516
vn -0.022850806 0.99217349 -0.12275807
vn -0.022850806 0.99217349 -0.12275807
vn -0.022850806 0.99217349 -0.12275807
vn -0.028091112 0.98639208 -0.16199248
vn -0.028091112 0.98639208 -0.16199248
vn -0.028091112 0.98639208 -0.16199248
vn -0.028168285 0.98634917 -0.16224049
vn -0.028168285 0.98634917 -0.16224049
vn -0.028168285 0.98634917 -0.16224049
vn -0.83729011 0.54638225 0.020295797
vn -0.83729011 0.54638225 0.020295797
vn -0.83729011 0.54638225 0.020295797
vn -0.012509732 0.98640728 -0.16384192
vn -0.012509732 0.98640728 -0.16384192
vn -0.012509732 0.98640728 -0.16384192
vn -0.0044608316 0.98676455 -0.16209824
vn -0.0044608316 0.98676455 -0.16209824
vn -0.0044608316 0.98676455 -0.16209824
vn 0.0026488064 0.98884416 -0.14893056
vn 0.0026488064 0.98884416 -0.14893056
vn 0.0026488064 0.98884416 -0.14893056
vn -0.075799733 0.99283123 -0.092414983
vn -0.075799733 0.99283123 -0.092414983
vn -0.075799733 0.99283123 -0.092414983
vn -0.89086241 0.43796489 -0.12062716
vn -0.89086241 0.43796489 -0.12062716
vn -0.89086241 0.43796489 -0.12062716
vn -0.52974606 0.29753134 0.79425704
vn -0.52974606 0.29753134 0.79425704
vn -0.52974606 0.29753134 0.79425704
vn -0.016386863 0.99862969 -0.049702719
vn -0.016386863 0.99862969 -0.049702719
vn -0.016386863 0.99862969 -0.049702719
vn -0.71109623 0.50965446 0.4843494
vn -0.71109623 0.50965446 0.4843494
vn -0.71109623 0.50965446 0.4843494
vn -0.77160925 0.52107036 0.3648352
vn -0.77160925 0.52107036 0.3648352
vn -0.77160925 0.52107036 0.3648352
vn 0.010394726 0.99018663 -0.1393642
vn 0.010394726 0.99018663 -0.1393642
vn 0.010394726 0.99018663 -0.1393642
vn -0.0002392032 0.98603994 -0.16650851
vn -0.0002392032 0.98603994 -0.16650851
vn -0.0002392032 0.98603994 -0.16650851
vn 0.020496681 0.99542856 -0.093283318
vn 0.020496681 0.99542856 -0.093283318
vn 0.020496681 0.99542856 -0.093283318
vn -0.0047402722 0.9947542 -0.10218424
vn -0.0047402722 0.9947542 -0.10218424
vn -0.0047402722 0.9947542 -0.10218424
vn -0.83727014 0.54640889 0.020399816
vn -0.83727014 0.54640889 0.020399816
vn -0.83727014 0.54640889 0.020399816
vn -0.83690274 0.54670304 0.026636187
vn -0.83690274 0.54670304 0.026636187
vn -0.83690274 0.54670304 0.026636187
vn -0.024738034 0.99129844 -0.12928829
vn -0.024738034 0.99129844 -0.12928829
vn -0.024738034 0.99129844 -0.12928829
vn -0.001997679 0.99927902 -0.037915129
vn -0.001997679 0.99927902 -0.037915129
vn -0.001997679 0.99927902 -0.037915129
vn -0.0058260425 0.99749911 -0.070438258
vn -0.0058260425 0.99749911 -0.070438258
vn -0.0058260425 0.99749911 -0.070438258
vn 0.025187992 0.98968089 -0.14105742
vn 0.025187992 0.98968089 -0.14105742
vn 0.025187992 0.98968089 -0.14105742
vn -0.1061691 0.41444877 0.9038586
vn -0.1061691 0.41444877 0.9038586
vn -0.1061691 0.41444877 0.9038586
vn 0.019824274 0.98654896 -0.16225924
vn 0.019824274 0.98654896 -0.16225924
vn 0.019824274 0.98654896 -0.16225924
vn -0.010604667 0.99886656 -0.046401545
vn -0.010604667 0.99886656 -0.046401545
vn -0.010604667 0.99886656 -0.046401545
vn 0.0026563001 0.99457359 -0.10400148
vn 0.0026563001 0.99457359 -0.10400148
vn 0.0026563001 0.99457359 -0.10400148
vn 0.018335359 0.98855424 -0.14974718
vn 0.018335359 0.98855424 -0.14974718
vn 0.018335359 0.98855424 -0.14974718
vn 0.048592966 0.9965201 -0.067723133
vn 0.048592966 0.9965201 -0.067723133
vn 0.048592966 0.9965201 -0.067723133
vn 0.031224744 0.98738867 -0.15520522
vn 0.031224744 0.98738867 -0.15520522
vn 0.031224744 0.98738867 -0.15520522
vn 0.04474197 0.99535835 -0.085204363
vn 0.04474197 0.99535835 -0.085204363
vn 0.04474197 0.99535835 -0.085204363
vn 0.018396839 0.98847157 -0.15028504
vn 0.018396839 0.98847157 -0.15028504
vn 0.018396839 0.98847157 -0.15028504
vn 0.072487563 0.98629099 -0.14824139
vn 0.072487563 0.98629099 -0.14824139
vn 0.072487563 0.98629099 -0.14824139
vn 0.049885809 0.99588042 -0.075719126
vn 0.049885809 0.99588042 -0.075719126
vn 0.049885809 0.99588042 -0.075719126
vn 0.085872583 0.98493838 -0.15007414
vn 0.085872583 0.98493838 -0.15007414
vn 0.085872583 0.98493838 -0.15007414
vn 0.020624522 0.98992896 -0.14005534
vn 0.020624522 0.98992896 -0.14005534
vn 0.020624522 0.98992896 -0.14005534
vn 0.046157118 0.99311346 -0.107681
vn 0.046157118 0.99311346 -0.107681
vn 0.046157118 0.99311346 -0.107681
vt 0.4375 0.1875
vt 0.4375 0.1875
vt 0.4375 0.1875
vt 0.4375 0.1875
vt 0.4375 0.1875
vt 0.4375 0.1875
vt 0.4375 0.1875
vt 0.4375 0.1875
vt 0.4375 0.1875
vt 0.4375 0.1875
vt 0.4375 0.1875
vt 0.4375 0.1875
vt 0.4375 0.1875
vt 0.4375 0.1875
vt 0.4375 0.1875
vt 0.4375 0.1875
vt 0.4375 0.1875
vt 0.4375 0.1875
vt 0.4375 0.1875
vt 0.4375 0.1875
vt 0.4375 0.1875
vt 0.4375 0.1875
vt 0.4375 0.1875
vt 0.4375 0.1875
vt 0.4375 0.1875
vt 0.4375 0.1875
vt 0.4375 0.1875
vt 0.4375 0.1875
vt 0.4375 0.1875
vt 0.4375 0.1875
vt 0.4375 0.1875
vt 0.4375 0.1875
vt 0.4375 0.1875
vt 0.4375 0.1875
vt 0.4375 0.1875
vt 0.4375 0.1875
vt 0.4375 0.1875
vt 0.4375 0.1875
vt 0.4375 0.1875
vt 0.4375 0.1875
vt 0.4375 0.1875
vt 0.4375 0.1875
vt 0.4375 0.1875
vt 0.4375 0.1875
vt 0.4375 0.1875
vt 0.4375 0.1875
vt 0.4375 0.1875
vt 0.4375 0.1875
vt 0.4375 0.1875
vt 0.4375 0.1875
vt 0.4375 0.1875
vt 0.4375 0.1875
vt 0.4375 0.1875
vt 0.4375 0.1875
vt 0.4375 0.1875
vt 0.4375 0.1875
vt 0.4375 0.1875
vt 0.4375 0.1875
vt 0.4375 0.1875
vt 0.4375 0.1875
vt 0.4375 0.1875
vt 0.4375 0.1875
vt 0.4375 0.1875
vt 0.4375 0.1875
vt 0.4375 0.1875
vt 0.4375 0.1875
vt 0.4375 0.1875
vt 0.4375 0.1875
vt 0.4375 0.1875
vt 0.4375 0.1875
vt 0.4375 0.1875
vt 0.4375 0.1875
vt 0.0625 0.0625
vt 0.0625 0.0625
vt 0.0625 0.0625
vt 0.4375 0.1875
vt 0.4375 0.1875
vt 0.4375 0.1875
vt 0.4375 0.1875
vt 0.4375 0.1875
vt 0.4375 0.1875
vt 0.0625 0.0625
vt 0.0625 0.0625
vt 0.0625 0.0625
vt 0.0625 0.0625
vt 0.0625 0.0625
vt 0.0625 0.0625
vt 0.4375 0.1875
vt 0.4375 0.1875
vt 0.4375 0.1875
vt 0.0625 0.0625
vt 0.0625 0.0625
vt 0.0625 0.0625
vt 0.4375 0.1875
vt 0.4375 0.1875
vt 0.4375 0.1875
vt 0.4375 0.1875
vt 0.4375 0.1875
vt 0.4375 0.1875
vt 0.4375 0.1875
vt 0.4375 0.1875
vt 0.4375 0.1875
vt 0.0625 0.0625
vt 0.0625 0.0625
vt 0.0625 0.0625
vt 0.0625 0.0625
vt 0.0625 0.0625
vt 0.0625 0.0625
vt 0.4375 0.1875
vt 0.4375 0.1875
vt 0.4375 0.1875
vt 0.0625 0.0625
vt 0.0625 0.0625
vt 0.0625 0.0625
vt 0.0625 0.0625
vt 0.0625 0.0625
vt 0.0625 0.0625
vt 0.0625 0.0625
vt 0.0625 0.0625
vt 0.0625 0.0625
vt 0.4375 0.1875
vt 0.4375 0.1875
vt 0.4375 0.1875
vt 0.4375 0.1875
vt 0.4375 0.1875
vt 0.4375 0.1875
vt 0.4375 0.1875
vt 0.4375 0.1875
vt 0.4375 0.1875
vt 0.0625 0.0625
vt 0.0625 0.0625
vt 0.0625 0.0625
vt 0.4375 0.1875
vt 0.4375 0.1875
vt 0.4375 0.1875
vt 0.4375 0.1875
vt 0.4375 0.1875
vt 0.4375 0.1875
vt 0.0625 0.0625
vt 0.0625 0.0625
vt 0.0625 0.0625
vt 0.4375 0.1875
vt 0.4375 0.1875
vt 0.4375 0.1875
vt 0.4375 0.1875
vt 0.4375 0.1875
vt 0.4375 0.1875
vt 0.4375 0.1875
vt 0.4375 0.1875
vt 0.4375 0.1875
vt 0.4375 0.1875
vt 0.4375 0.1875
vt 0.4375 0.1875
vt 0.4375 0.1875
vt 0.4375 0.1875
vt 0.4375 0.1875
vt 0.4375 0.1875
vt 0.4375 0.1875
vt 0.4375 0.1875
vt 0.0625 0.0625
vt 0.0625 0.0625
vt 0.0625 0.0625
vt 0.4375 0.1875
vt 0.4375 0.1875
vt 0.4375 0.1875
vt 0.4375 0.1875
vt 0.4375 0.1875
vt 0.4375 0.1875
vt 0.0625 0.0625
vt 0.0625 0.0625
vt 0.0625 0.0625
vt 0.4375 0.1875
vt 0.4375 0.1875
vt 0.4375 0.1875
vt 0.4375 0.1875
vt 0.4375 0.1875
vt 0.4375 0.1875
vt 0.0625 0.0625
vt 0.0625 0.0625
vt 0.0625 0.0625
vt 0.0625 0.0625
vt 0.0625 0.0625
vt 0.0625 0.0625
vt 0.4375 0.1875
vt 0.4375 0.1875
vt 0.4375 0.1875
vt 0.0625 0.0625
vt 0.0625 0.0625
vt 0.0625 0.0625
vt 0.4375 0.1875
vt 0.4375 0.1875
vt 0.4375 0.1875
vt 0.4375 0.1875
vt 0.4375 0.1875
vt 0.4375 0.1875
vt 0.0625 0.0625
vt 0.0625 0.0625
vt 0.0625 0.0625
vt 0.0625 0.0625
vt 0.0625 0.0625
vt 0.0625 0.0625
vt 0.0625 0.0625
vt 0.0625 0.0625
vt 0.0625 0.0625
vt 0.0625 0.0625
vt 0.0625 0.0625
vt 0.0625 0.0625
vt 0.4375 0.1875
vt 0.4375 0.1875
vt 0.4375 0.1875
vt 0.4375 0.1875
vt 0.4375 0.1875
vt 0.4375 0.1875
vt 0.0625 0.0625
vt 0.0625 0.0625
vt 0.0625 0.0625
vt 0.0625 0.0625
vt 0.0625 0.0625
vt 0.0625 0.0625
vt 0.0625 0.0625
vt 0.0625 0.0625
vt 0.0625 0.0625
vt 0.4375 0.1875
vt 0.4375 0.1875
vt 0.4375 0.1875
vt 0.4375 0.1875
vt 0.4375 0.1875
vt 0.4375 0.1875
vt 0.4375 0.1875
vt 0.4375 0.1875
vt 0.4375 0.1875
vt 0.0625 0.0625
vt 0.0625 0.0625
vt 0.0625 0.0625
vt 0.4375 0.1875
vt 0.4375 0.1875
vt 0.4375 0.1875
vt 0.4375 0.1875
vt 0.4375 0.1875
vt 0.4375 0.1875
vt 0.0625 0.0625
vt 0.0625 0.0625
vt 0.0625 0.0625
vt 0.0625 0.0625
vt 0.0625 0.0625
vt 0.0625 0.0625
vt 0.0625 0.0625
vt 0.0625 0.0625
vt 0.0625 0.0625
g game_terrain
f 1/1/1 2/2/2 3/3/3
f 4/4/4 5/5/5 6/6/6
f 7/7/7 8/8/8 9/9/9
f 10/10/10 11/11/11 12/12/12
f 13/13/13 14/14/14 15/15/15
f 16/16/16 17/17/17 18/18/18
f 19/19/19 20/20/20 21/21/21
f 22/22/22 23/23/23 24/24/24
f 25/25/25 26/26/26 27/27/27
f 28/28/28 29/29/29 30/30/30
f 31/31/31 32/32/32 33/33/33
f 34/34/34 35/35/35 36/36/36
f 37/37/37 38/38/38 39/39/39
f 40/40/40 41/41/41 42/42/42
f 43/43/43 44/44/44 45/45/45
f 46/46/46 47/47/47 48/48/48
f 49/49/49 50/50/50 51/51/51
f 52/52/52 53/53/53 54/54/54
f 55/55/55 56/56/56 57/57/57
f 58/58/58 59/59/59 60/60/60
f 61/61/61 62/62/62 63/63/63
f 64/64/64 65/65/65 66/66/66
f 67/67/67 68/68/68 69/69/69
f 70/70/70 71/71/71 72/72/72
f 73/73/73 74/74/74 75/75/75
f 76/76/76 77/77/77 78/78/78
f 79/79/79 80/80/80 81/81/81
f 82/82/82 83/83/83 84/84/84
f 85/85/85 86/86/86 87/87/87
f 88/88/88 89/89/89 90/90/90
f 91/91/91 92/92/92 93/93/93
f 94/94/94 95/95/95 96/96/96
f 97/97/97 98/98/98 99/99/99
f 100/100/100 101/101/101 102/102/102
f 103/103/103 104/104/104 105/105/105
f 106/106/106 107/107/107 108/108/108
f 109/109/109 110/110/110 111/111/111
f 112/112/112 113/113/113 114/114/114
f 115/115/115 116/116/116 117/117/117
f 118/118/118 119/119/119 120/120/120
f 121/121/121 122/122/122 123/123/123
f 124/124/124 125/125/125 126/126/126
f 127/127/127 128/128/128 129/129/129
f 130/130/130 131/131/131 132/132/132
f 133/133/133 134/134/134 135/135/135
f 136/136/136 137/137/137 138/138/138
f 139/139/139 140/140/140 141/141/141
f 142/142/142 143/143/143 144/144/144
f 145/145/145 146/146/146 147/147/147
f 148/148/148 149/149/149 150/150/150
f 151/151/151 152/152/152 153/153/153
f 154/154/154 155/155/155 156/156/156
f 157/157/157 158/158/158 159/159/159
f 160/160/160 161/161/161 162/162/162
f 163/163/163 164/164/164 165/165/165
f 166/166/166 167/167/167 168/168/168
f 169/169/169 170/170/170 171/171/171
f 172/172/172 173/173/173 174/174/174
f 175/175/175 176/176/176 177/177/177
f 178/178/178 179/179/179 180/180/180
f 181/181/181 182/182/182 183/183/183
f 184/184/184 185/185/185 186/186/186
f 187/187/187 188/188/188 189/189/189
f 190/190/190 191/191/191 192/192/192
f 193/193/193 194/194/194 195/195/195
f 196/196/196 197/197/197 198/198/198
f 199/199/199 200/200/200 201/201/201
f 202/202/202 203/203/203 204/204/204
f 205/205/205 206/206/206 207/207/207
f 208/208/208 209/209/209 210/210/210
f 211/211/211 212/212/212 213/213/213
f 214/214/214 215/215/215 216/216/216
f 217/217/217 218/218/218 219/219/219
f 220/220/220 221/221/221 222/222/222
f 223/223/223 224/224/224 225/225/225
f 226/226/226 227/227/227 228/228/228
f 229/229/229 230/230/230 231/231/231
f 232/232/232 233/233/233 234/234/234
f 235/235/235 236/236/236 237/237/237
f 238/238/238 239/239/239 240/240/240
f 241/241/241 242/242/242 243/243/243
f 244/244/244 245/245/245 246/246/246
f 247/247/247 248/248/248 249/249/249
